<svg id="Capa_1" data-name="Capa 1" xmlns="http://www.w3.org/2000/svg" viewBox="0 0 503.7 424.6"><title>heart_2</title><path d="M27.4,211.4s-1.7-4.8-5.7-5S14,211,16.5,216.9a26.1,26.1,0,0,0,7,9.4s10.2-1.6,13-6.9.4-9.7-2.5-10.1S27.4,211.4,27.4,211.4Z" style="fill:#ff8578"/><path d="M22.4,206.9a6.2,6.2,0,0,0-3.7.8h-.1a.5.5,0,0,0-.1.5l1.6-.4h1.7a5.4,5.4,0,0,1,1.6.3,7.4,7.4,0,0,0,1.4.7C24.5,207.8,23.3,207.1,22.4,206.9Z" style="fill:#ffa68f"/><path d="M37.7,214.3s-3.1,8.9-14.3,11.9h.1s10.2-1.6,13-6.9A9.6,9.6,0,0,0,37.7,214.3Z" style="fill:#fb5252"/><path d="M37.7,288.3h-.6A70.6,70.6,0,0,1,9.2,274.4c-6.7-5.6-10.1-13.3-9-20.8.8-5.7,4.1-10.2,8.7-12.3,8.5-3.7,16.9,2.1,19.7,4.3,1.7-2.7,6.5-9.8,12.8-12s12,1.2,15.9,7.5a9,9,0,0,1,.7,1.3l.2.3.8,1.7.3.7.5,1.6v.5c.2.7.4,1.5.5,2.2v.6q.2.9.3,1.9v.7c.1,1,.1,1.8.1,2.6-.1,13-14.3,26-20.4,31C38.5,288,38.1,288.3,37.7,288.3Zm-23-46.1a12.5,12.5,0,0,0-5,1c-4,1.7-6.8,5.7-7.5,10.7-1,6.8,2.1,13.9,8.3,19a68.5,68.5,0,0,0,26.9,13.3c2.6-2,21.5-16.8,21.6-30.9,0-.8,0-1.5-.1-2.5v-.6c-.1-.7-.1-1.3-.2-1.9v-.5c-.1-.7-.3-1.4-.5-2.1v-.5l-.5-1.5-.2-.6-.7-1.5-.2-.3-.4-.7-.3-.4c-3.4-5.5-9.1-8.3-13.6-6.7-6.9,2.4-12.3,12.1-12.4,12.2l-.6,1.1-.9-.9C28.1,247.9,21.8,242.2,14.7,242.2Z" style="fill:#f8fafb"/></svg>