<svg id="Capa_1" data-name="Capa 1" xmlns="http://www.w3.org/2000/svg" viewBox="0 0 503.7 424.6"><title>heart_5</title><path d="M454.6,319.9s-1.1-12.2-10.3-15.3-21.1,6.3-18.9,21.7a63.3,63.3,0,0,0,10.6,26.4s25.1,2.4,34.7-8.1,6.9-22.5.3-25.3S454.6,319.9,454.6,319.9Z" style="fill:#ff8578"/><path d="M445.4,306.3c-2.9-1.4-6.2-.9-9.2-.4H436c-.5.2-.6.7-.7,1.2h4a14.7,14.7,0,0,1,4,.9,13.1,13.1,0,0,1,3.6,1.8c1,.8,1.8,1.9,2.9,2.5C450,309.8,447.6,307.4,445.4,306.3Z" style="fill:#ffa68f"/><path d="M476.8,333.1s-12.7,18.9-41,19.2l.3.4s25.1,2.4,34.7-8.1A23.3,23.3,0,0,0,476.8,333.1Z" style="fill:#fb5252"/><path d="M457.8,382.7l-.5-.2a30.1,30.1,0,0,1-10.6-5.8,9.4,9.4,0,0,1-3.2-8.6,6.4,6.4,0,0,1,3.9-4.9c3.1-1.2,6,.5,7.4,1.6.9-1.2,2.8-3.3,5-4s5.1.7,6.6,3.4h0l.3.5v.2l.3.7v.2l.2.7v.2l.2.9v.2c0,.3.1.6.1.8v.3c0,.3,0,.7,0,1-.3,6.3-9,12.2-9.4,12.4Zm-8.3-17.9-1.5.3a4.4,4.4,0,0,0-2.6,3.4,7.4,7.4,0,0,0,2.6,6.7,28.2,28.2,0,0,0,9.4,5.3c1.6-1.2,7.9-6,8.1-10.6,0-.3,0-.6,0-.9v-2.7l-.2-.5h-.1l-.2-.3h0c-1.2-2.1-3-2.8-4.3-2.5s-3.9,3.2-4.5,4.1l-.7,1.1-.9-.9S452,364.9,449.5,364.9Z" style="fill:#f8fafb"/><path d="M404.6,390.1H404v-1l-.2,1h-.2a63.4,63.4,0,0,1-24.6-13.2c-5.9-5.2-8.6-12.3-7.5-19,.9-5.1,4-9.1,8.2-10.8,7.7-3,15,2.3,17.5,4.4,1.7-2.4,6.2-8.3,11.8-10.3,8.2-3,14,6.8,14.2,7.2l.6,1.2.2.3.6,1.5.2.6.4,1.4v.5c.2.6.3,1.3.4,2v.5c.1.6.1,1.1.2,1.7h0v.6c0,.9,0,1.6,0,2.4-.6,14.3-20.4,28.2-21.3,28.7ZM384.7,348a11,11,0,0,0-4.1.8c-3.6,1.4-6.2,4.9-7,9.3-1.1,6,1.5,12.4,6.8,17.1a61.2,61.2,0,0,0,23.7,12.7c2.7-2,19.6-14.6,20.1-26.9,0-.7,0-1.4,0-2.2v-.6h0q-.1-.8-.2-1.6v-.5c-.1-.6-.2-1.3-.4-1.8v-.5l-.4-1.3-.2-.5-.6-1.4v-.3l-.6-1.1c0-.1-5.2-8.8-11.8-6.4s-11.4,10.4-11.4,10.5l-.7,1.1-.9-.9C396.8,353.5,391.2,348,384.7,348Z" style="fill:#ec3a3b"/></svg>