<svg id="Capa_1" data-name="Capa 1" xmlns="http://www.w3.org/2000/svg" viewBox="0 0 503.7 424.6"><title>Heart_big</title><path d="M265.8,100.1S217.2,12.2,138,19.6,1.2,137.2,69,244.5,236.2,406.8,236.2,406.8,431.9,341.6,469,230.4,446,39,387.2,40.3,265.8,100.1,265.8,100.1Z" style="fill:#fb5252"/><path d="M152,29.4c-26.5-.9-49.3,13.5-70.5,27.5l-1,.8c-3,3-2.3,7.2-1.2,11.1,9.9-4.3,19.8-8.9,30-12.5a120.6,120.6,0,0,1,32.6-6.4c10.6-.7,22.1-1.2,32.5,1.4s19.5,8.3,30,8.6C197.7,39.8,171.3,30,152,29.4Z" style="fill:#ff8578"/><path d="M475.9,125.3S443.6,309.2,233.1,405l3.2,1.8S431.9,341.6,469,230.4C482.2,190.6,483,154.8,475.9,125.3Z" style="fill:#ec3a3b"/><path d="M92.5,51.6c23.5-13,49.6-24.6,77-19.4,1.9.4,2.7-2.5.8-2.9C142,24,115.2,35.6,91,49.1c-1.7.9-.2,3.5,1.5,2.6Z" style="fill:#fff"/><path d="M85.2,53.6l-3.4,2a1.5,1.5,0,0,0,1.5,2.6l3.4-2a1.5,1.5,0,0,0-1.5-2.6Z" style="fill:#fff"/></svg>