<svg id="Capa_1" data-name="Capa 1" xmlns="http://www.w3.org/2000/svg" viewBox="0 0 503.7 424.6"><title>heart_1</title><path d="M56.8,18.9s-3.9-4.8-8.7-3.5-7,8.7-1.7,14.5a32.1,32.1,0,0,0,12,8s11.2-6.2,12.2-13.3-3.6-11.4-7.1-10.6S56.8,18.9,56.8,18.9Z" style="fill:#ff8578"/><path d="M49.1,15.9a7.7,7.7,0,0,0-4,2.5h0a.7.7,0,0,0,.1.7L46.8,18a7.5,7.5,0,0,1,1.9-.8,6.6,6.6,0,0,1,2-.3,9.1,9.1,0,0,0,1.9.2C52,16,50.3,15.7,49.1,15.9Z" style="fill:#ffa68f"/><path d="M69.9,18.1S70,29.6,58.3,37.8h.2s11.2-6.2,12.2-13.3A11.8,11.8,0,0,0,69.9,18.1Z" style="fill:#fb5252"/><path d="M89.5,22.1l-.4-.4A27.3,27.3,0,0,1,81.9,12a9.4,9.4,0,0,1,.7-9.1A6.4,6.4,0,0,1,88.1,0c3.4.2,5.3,3,6.1,4.6a12.3,12.3,0,0,1,6.1-1.6c4.1.4,4.6,5.6,4.6,5.9s0,.4,0,.6h0c0,.3,0,.5,0,.8v1.2l-.2.9h0l-.3.8h0v.3l-.4.9C100.7,20.2,90.4,21.9,90,22Zm.3-1.2h0ZM87.8,2a4.5,4.5,0,0,0-3.6,2,7.4,7.4,0,0,0-.5,7.2A25.3,25.3,0,0,0,90.1,20c1.9-.4,9.6-2.1,11.8-6.2l.4-.8v-.2l.2-.6h0l.2-.8v-.9c0-.2,0-.4,0-.6h0c0-.2,0-.3,0-.5s-.3-3.8-2.8-4-5.9,1.8-5.9,1.8l-1.1.7-.4-1.2S91.3,2.2,88,2Z" style="fill:#ec3a3b"/></svg>