<svg id="Capa_1" data-name="Capa 1" xmlns="http://www.w3.org/2000/svg" viewBox="0 0 503.7 424.6"><title>heart_7</title><path d="M279.4,28s-9.5-7.8-18.1-3.4S251,44.1,263.6,53.2a63.3,63.3,0,0,0,26.3,10.9s19.3-16.2,18.5-30.5-11.2-20.7-17.8-17.9S279.4,28,279.4,28Z" style="fill:#ff8578"/><path d="M263.3,25.1c-3,1.1-5,3.7-6.8,6.3h-.1a1.3,1.3,0,0,0,.4,1.3c.9-.9,1.8-1.9,2.8-2.8a14.7,14.7,0,0,1,3.4-2.2,13.1,13.1,0,0,1,3.8-1.3c1.3-.2,2.6.1,3.8-.4C269,24.2,265.5,24.3,263.3,25.1Z" style="fill:#ffa68f"/><path d="M304.4,21.4s4.6,22.3-15,42.7h.4s19.3-16.2,18.5-30.5A23.3,23.3,0,0,0,304.4,21.4Z" style="fill:#fb5252"/><path d="M328.4,34.8l-.5-.4a30.1,30.1,0,0,1-7.1-9.7,9.4,9.4,0,0,1,.7-9.1,6.4,6.4,0,0,1,5.6-2.8c3.3.2,5.2,3,6.1,4.6,1.4-.7,3.9-1.9,6.2-1.5s4.3,2.8,4.6,5.9h0a3.5,3.5,0,0,1,0,.6h0c0,.3,0,.5,0,.8v1.2l-.2.9h0l-.3.8v.3l-.4.9c-2.9,5.6-13.3,7.3-13.7,7.4Zm.3-1.1h0Zm-2-19a4.5,4.5,0,0,0-3.6,2,7.4,7.4,0,0,0-.5,7.2,28.3,28.3,0,0,0,6.3,8.7c2-.4,9.6-2.1,11.8-6.2l.4-.8v-.2l.2-.6h0l.2-.8h0V23c0-.2,0-.4,0-.6h0c0-.1,0-.3,0-.4h0c-.2-2.4-1.6-3.9-2.8-4s-4.9,1.2-5.8,1.8l-1.1.7-.4-1.2s-1.5-4.1-4.8-4.4Z" style="fill:#f8fafb"/></svg>