<svg id="Capa_1" data-name="Capa 1" xmlns="http://www.w3.org/2000/svg" viewBox="0 0 503.7 424.6"><title>heart_4</title><path d="M160.3,398.3s-6.9-5.7-13.2-2.5-7.4,14.2,1.7,20.8a46,46,0,0,0,19.1,7.9s14-11.8,13.4-22.1-8.1-15-13-13S160.3,398.3,160.3,398.3Z" style="fill:#ff8578"/><path d="M148.6,396.2c-2.2.8-3.6,2.7-4.9,4.6h-.1a1,1,0,0,0,.3,1l2.1-2a10.7,10.7,0,0,1,2.5-1.6,9.5,9.5,0,0,1,2.7-.9,13,13,0,0,0,2.8-.3C152.8,395.6,150.3,395.7,148.6,396.2Z" style="fill:#ffa68f"/><path d="M178.5,393.6s3.3,16.2-10.9,31h.3s14-11.8,13.4-22.1A16.9,16.9,0,0,0,178.5,393.6Z" style="fill:#fb5252"/><path d="M195.7,416.6l-.5-.4a27.3,27.3,0,0,1-7.1-9.7,9.3,9.3,0,0,1,.7-9.1,6.4,6.4,0,0,1,5.6-2.9c3.4.2,5.3,3,6.1,4.6a12.3,12.3,0,0,1,6.1-1.6c4.1.4,4.6,5.6,4.6,5.9s0,.4,0,.6v.2c0,.2,0,.5,0,.7v1.2l-.2.9v.2l-.3.8v.3l-.4.9c-2.9,5.6-13.3,7.3-13.7,7.4Zm-1.8-20.1a4.5,4.5,0,0,0-3.6,2,7.4,7.4,0,0,0-.5,7.2,25.2,25.2,0,0,0,6.3,8.7c1.9-.4,9.6-2.1,11.8-6.2l.4-.8v-.2l.2-.6v-.2l.2-.7v-.9c0-.2,0-.4,0-.6h0c0-.2,0-.3,0-.5s-.3-3.8-2.8-4-5.9,1.8-5.9,1.8l-1.1.7-.4-1.2s-1.5-4.1-4.8-4.4Z" style="fill:#ec3a3b"/></svg>