<svg id="Capa_1" data-name="Capa 1" xmlns="http://www.w3.org/2000/svg" viewBox="0 0 503.7 424.6"><title>heart_3</title><path d="M83.2,300.7s-1.6-9.1-8.7-10.8-15.4,6.2-12.6,17.5a47.6,47.6,0,0,0,9.8,19s18.9.1,25.4-8.5,3.6-17.3-1.5-18.9S83.2,300.7,83.2,300.7Z" style="fill:#ff8578"/><path d="M75.4,291.2c-2.3-.9-4.7-.3-6.9.3h-.1a1,1,0,0,0-.4.9l3-.2a11.1,11.1,0,0,1,3,.4,9.9,9.9,0,0,1,2.8,1.1,13.4,13.4,0,0,0,2.4,1.6C79,293.4,77,291.8,75.4,291.2Z" style="fill:#ffa68f"/><path d="M100.7,309.1s-8.2,15-29.4,17.2l.2.3s18.9.1,25.4-8.5A17.5,17.5,0,0,0,100.7,309.1Z" style="fill:#fb5252"/></svg>