<svg id="Capa_1" data-name="Capa 1" xmlns="http://www.w3.org/2000/svg" viewBox="0 0 503.7 424.6"><title>heart_6</title><path d="M486.7,65.6s-5.4-5-10.7-2.7-6.8,11.3.3,17.2a37.9,37.9,0,0,0,15.3,7.5s12.1-9,12.2-17.5-5.9-12.8-10-11.4S486.7,65.6,486.7,65.6Z" style="fill:#ff8578"/><path d="M477.1,63.3c-1.9.5-3.1,2.1-4.3,3.5h0a.8.8,0,0,0,.2.8l1.8-1.5a8.8,8.8,0,0,1,2.1-1.2,7.8,7.8,0,0,1,2.3-.6,10.7,10.7,0,0,0,2.3-.1C480.6,63,478.5,62.9,477.1,63.3Z" style="fill:#ffa68f"/><path d="M501.8,62.6s1.9,13.5-10.5,24.9h.3s12.1-9,12.2-17.5A13.9,13.9,0,0,0,501.8,62.6Z" style="fill:#fb5252"/><path d="M472.1,45.6s-1-3.6-4-4-6,3.2-4.4,7.7a19.5,19.5,0,0,0,4.8,7.3s7.7-.7,10-4.5.8-7.2-1.4-7.6S472.1,45.6,472.1,45.6Z" style="fill:#ff8578"/><path d="M468.5,42a4.7,4.7,0,0,0-2.8.4h0a.4.4,0,0,0-.1.4l1.2-.2H468l1.2.3a5.5,5.5,0,0,0,1,.6C470.1,42.8,469.2,42.2,468.5,42Z" style="fill:#ffa68f"/><path d="M479.6,48.3s-2.7,6.5-11.2,8.2h.1s7.7-.7,10-4.5A7.2,7.2,0,0,0,479.6,48.3Z" style="fill:#fb5252"/></svg>