<?xml version="1.0" standalone="no"?>
<!DOCTYPE svg PUBLIC "-//W3C//DTD SVG 20010904//EN"
 "http://www.w3.org/TR/2001/REC-SVG-20010904/DTD/svg10.dtd">
<svg version="1.0" xmlns="http://www.w3.org/2000/svg"
 width="1953.000000pt" height="1953.000000pt" viewBox="0 0 1953.000000 1953.000000"
 preserveAspectRatio="xMidYMid meet">
<metadata>
Created by potrace 1.11, written by Peter Selinger 2001-2013
</metadata>
<g transform="translate(0.000000,1953.000000) scale(0.100000,-0.100000)"
fill="#000000" stroke="none">
<path d="M10136 18885 c-13 -10 -16 -19 -10 -32 7 -16 8 -16 11 4 3 14 9 20
19 16 8 -3 14 1 14 11 0 20 -9 20 -34 1z"/>
<path d="M9800 18764 c0 -9 7 -14 17 -12 25 5 28 28 4 28 -12 0 -21 -6 -21
-16z"/>
<path d="M10069 18697 c-1 -6 -1 -15 0 -20 1 -4 -25 -6 -56 -4 -32 3 -64 2
-71 0 -19 -8 -76 -97 -64 -101 6 -2 22 -12 37 -23 19 -16 24 -26 19 -46 -5
-17 -3 -24 4 -19 12 7 84 -27 102 -49 24 -28 0 -38 -76 -31 -86 7 -94 -3 -36
-48 l37 -28 -45 5 c-25 4 -46 6 -48 6 -2 1 -1 10 3 20 5 17 0 19 -48 20 -29 0
-64 4 -77 9 l-25 9 23 7 c25 8 20 26 -8 26 -12 0 -22 -12 -31 -37 l-12 -36
-12 24 c-8 15 -10 28 -4 35 15 18 1 22 -46 13 -57 -11 -95 -30 -134 -69 -38
-38 -39 -50 -5 -50 49 0 133 -30 139 -50 3 -10 22 -29 42 -41 27 -17 32 -24
21 -28 -8 -3 -14 -14 -12 -23 3 -24 -5 -23 -48 7 -42 29 -48 30 -48 12 0 -17
82 -97 100 -97 22 -1 -37 -48 -95 -75 -27 -14 -51 -22 -54 -19 -3 3 1 9 8 13
10 7 10 11 -4 22 -9 8 -24 22 -33 32 -9 10 -30 31 -46 47 -16 16 -26 35 -23
43 4 12 -5 14 -54 10 -46 -3 -64 0 -76 13 -13 13 -29 15 -74 11 -42 -5 -59 -3
-62 7 -3 8 -1 18 4 23 5 5 3 17 -6 29 -13 16 -16 17 -24 4 -6 -8 -19 -16 -31
-16 -11 -1 -31 -2 -44 -3 -14 0 -31 -7 -38 -13 -17 -17 -86 -16 -118 2 -14 7
-38 21 -55 30 -20 11 -39 14 -57 9 -29 -8 -44 3 -32 22 4 8 1 8 -13 1 -24 -13
-58 -9 -138 17 -39 12 -67 16 -81 10 -25 -9 -34 -3 -34 22 0 13 -6 17 -22 14
-13 -2 -35 -6 -50 -9 -23 -4 -33 2 -54 30 -24 31 -31 34 -80 34 -36 0 -64 7
-88 21 -48 28 -63 17 -36 -27 l20 -35 -95 4 c-52 2 -95 2 -95 0 0 -2 7 -15 17
-29 16 -25 16 -25 -9 -19 -17 4 -36 0 -59 -14 -39 -24 -57 -27 -40 -7 9 10 8
16 -4 26 -14 12 -20 5 -17 -21 1 -4 -9 -10 -22 -13 -13 -3 -36 -25 -51 -48
-16 -24 -48 -62 -73 -85 -43 -41 -44 -42 -32 -79 7 -21 20 -39 32 -42 14 -3
16 -7 8 -12 -19 -12 -3 -29 21 -23 18 5 19 2 13 -21 -4 -18 0 -41 11 -67 15
-33 24 -40 56 -45 56 -9 64 -21 73 -111 5 -53 -8 -70 -59 -76 -49 -5 -83 -22
-108 -54 -10 -12 -29 -23 -42 -23 -20 0 -23 -4 -19 -27 3 -16 15 -38 26 -50
25 -27 20 -34 -22 -39 -17 -2 -40 -8 -50 -14 -14 -8 -26 -7 -41 0 -20 11 -20
11 -4 -20 9 -18 14 -34 11 -38 -3 -3 -23 1 -45 8 -55 18 -111 3 -131 -34 -12
-22 -12 -30 -2 -33 6 -3 10 -9 6 -14 -8 -13 -54 -11 -54 3 0 6 -13 0 -28 -15
-15 -15 -34 -27 -41 -27 -7 0 -19 -7 -27 -14 -18 -19 -58 -14 -120 13 -26 12
-58 23 -72 26 -36 6 -118 -41 -143 -82 -20 -32 -30 -105 -16 -119 3 -3 22 10
41 31 38 40 59 42 64 4 2 -18 -6 -30 -33 -48 -29 -20 -52 -25 -118 -28 -94 -4
-108 -6 -123 -16 -15 -9 -24 1 -17 19 4 10 -4 14 -28 14 -19 0 -51 5 -72 11
-54 15 -85 5 -148 -47 -29 -24 -66 -50 -81 -57 -32 -13 -34 -24 -14 -53 13
-19 12 -19 -38 -18 -51 2 -160 -31 -151 -46 2 -3 -4 -6 -13 -6 -84 0 -100 -4
-106 -27 -5 -23 -42 -47 -71 -47 -20 0 -30 -21 -15 -30 9 -6 4 -13 -19 -24
-34 -18 -39 -41 -16 -72 8 -10 15 -29 15 -41 0 -21 4 -22 90 -21 83 1 150 -13
150 -32 0 -4 -20 -18 -45 -31 -25 -13 -48 -32 -51 -41 -3 -11 -15 -18 -29 -18
-36 0 -74 -17 -112 -50 -27 -24 -37 -28 -57 -20 -28 10 -46 -4 -46 -37 0 -28
21 -40 86 -46 29 -2 57 -8 63 -11 15 -10 14 -46 -1 -50 -105 -30 -175 -79
-165 -116 3 -13 -1 -21 -14 -25 -10 -4 -19 -13 -19 -21 0 -8 -10 -14 -24 -14
-13 0 -30 -8 -37 -17 -12 -15 -12 -16 3 -10 27 10 38 -20 23 -62 -6 -20 -10
-42 -8 -49 4 -9 -8 -12 -40 -11 -29 2 -59 -5 -86 -19 -23 -12 -49 -22 -59 -22
-30 0 -46 -17 -48 -52 -1 -18 -2 -39 -3 -45 0 -7 -12 -15 -26 -19 -14 -3 -32
-19 -41 -35 -10 -20 -22 -29 -39 -29 -31 0 -33 -23 -2 -37 44 -19 111 -4 235
54 94 43 98 43 93 13 -4 -32 -18 -40 -55 -33 -24 5 -28 3 -23 -10 3 -9 2 -19
-3 -22 -6 -4 -10 -1 -10 4 0 6 -11 11 -25 11 -14 0 -25 -4 -25 -10 0 -9 14
-14 33 -11 34 5 -87 -78 -183 -125 -100 -49 -161 -98 -180 -144 -10 -25 -15
-28 -27 -18 -12 10 -21 5 -50 -30 -19 -23 -38 -40 -42 -38 -4 3 -38 -11 -75
-30 -38 -19 -76 -36 -85 -37 -9 -1 -32 -14 -51 -28 -19 -15 -54 -36 -77 -49
-47 -26 -54 -41 -39 -84 8 -25 6 -32 -10 -40 -10 -6 -39 -32 -64 -58 -25 -27
-53 -48 -63 -48 -19 0 -21 -8 -8 -28 13 -20 117 -32 140 -15 19 13 56 19 76
13 6 -2 53 10 106 28 53 17 108 33 121 36 14 2 73 14 132 26 59 12 111 18 114
14 4 -4 2 -8 -4 -11 -5 -2 -30 -21 -53 -42 -40 -37 -42 -40 -23 -50 14 -7 18
-17 15 -36 -4 -18 -1 -25 10 -25 9 0 19 -5 22 -11 4 -6 0 -9 -11 -7 -14 2 -20
-4 -22 -22 -3 -21 -42 -69 -57 -70 -3 0 -9 0 -13 0 -14 0 -105 -90 -99 -97 4
-3 23 -7 42 -8 20 -2 39 -5 42 -8 3 -3 -22 -43 -55 -88 -52 -71 -59 -87 -56
-117 3 -25 -1 -41 -15 -56 -21 -22 -41 -68 -41 -92 0 -11 4 -12 18 -5 13 7 27
6 45 -4 15 -8 38 -12 52 -9 29 5 30 1 11 -29 -10 -15 -15 -49 -14 -110 1 -77
3 -87 17 -82 9 4 27 8 41 9 14 2 19 1 12 -1 -7 -3 -24 -15 -39 -29 -14 -13
-32 -24 -39 -24 -8 0 -14 -4 -14 -10 0 -5 16 -10 35 -10 19 0 35 -4 35 -9 0
-19 -38 -97 -59 -121 l-22 -24 21 -8 c24 -9 27 -38 4 -38 -13 0 -14 -3 -5 -14
12 -14 3 -28 -37 -58 -9 -7 -28 -34 -41 -60 -27 -54 -68 -89 -124 -108 -44
-14 -64 -48 -71 -122 -3 -24 -23 -81 -45 -126 -46 -91 -50 -116 -21 -132 28
-15 25 -35 -11 -73 -48 -49 -61 -74 -54 -97 5 -14 1 -25 -9 -33 -17 -13 -22
-47 -12 -87 7 -30 -7 -62 -52 -114 -28 -32 -33 -44 -28 -70 4 -17 11 -32 16
-34 12 -4 13 -29 2 -34 -5 -2 -26 -25 -46 -52 -37 -49 -37 -50 -16 -58 12 -4
18 -13 14 -19 -3 -6 -1 -15 6 -19 11 -7 10 -14 -4 -34 -18 -28 -14 -46 10 -46
25 0 15 -35 -20 -69 -31 -30 -33 -35 -23 -62 10 -24 7 -37 -16 -84 -15 -31
-27 -62 -27 -70 0 -18 21 -20 39 -2 14 14 12 -3 -13 -100 -21 -79 -27 -160
-15 -211 6 -30 5 -47 -7 -71 -21 -42 -28 -92 -20 -145 6 -40 10 -46 32 -46 28
0 27 2 12 -57 -10 -40 -9 -47 6 -55 15 -8 17 -18 11 -62 -9 -64 -9 -68 -1 -87
5 -11 -7 -32 -38 -65 -44 -49 -49 -64 -18 -64 12 0 13 -3 4 -12 -20 -20 -14
-44 25 -95 l37 -48 1 -155 c2 -123 5 -162 18 -187 13 -25 15 -38 7 -59 -6 -15
-9 -27 -8 -28 51 -20 56 -43 29 -131 -12 -37 -21 -70 -21 -74 0 -4 16 -24 35
-45 43 -47 44 -70 9 -162 -30 -80 -34 -138 -12 -180 9 -16 21 -51 27 -79 7
-27 20 -62 30 -76 14 -18 16 -30 9 -42 -9 -18 -2 -57 11 -57 4 0 5 -15 3 -33
-2 -22 2 -38 12 -46 14 -11 14 -17 0 -51 -17 -43 -23 -128 -12 -180 4 -19 10
-51 13 -70 3 -19 11 -55 16 -80 6 -25 10 -67 9 -95 -3 -92 -1 -107 16 -119 15
-11 15 -16 -5 -52 -35 -65 -47 -76 -95 -81 -37 -5 -54 0 -98 25 -70 39 -135
61 -199 65 -43 4 -55 1 -76 -19 -14 -13 -32 -24 -39 -24 -8 0 -14 -6 -14 -13
0 -8 -20 -34 -45 -58 -28 -28 -45 -53 -45 -68 0 -15 -18 -44 -49 -76 -56 -59
-80 -103 -109 -195 -37 -121 -53 -354 -23 -335 5 2 4 -12 -2 -33 -8 -33 -2
-60 63 -252 40 -118 85 -264 101 -325 15 -60 43 -166 62 -235 20 -69 61 -217
91 -330 85 -317 133 -470 162 -511 14 -21 24 -44 21 -51 -6 -17 22 -89 83
-213 27 -56 52 -113 55 -128 4 -15 13 -27 20 -27 8 0 20 -12 28 -28 53 -102
85 -152 121 -188 22 -22 53 -54 68 -70 15 -16 31 -33 36 -39 54 -57 112 -123
137 -154 17 -22 41 -45 55 -51 13 -6 30 -20 37 -29 7 -10 44 -37 83 -60 95
-57 124 -101 125 -190 1 -36 4 -75 7 -86 4 -11 9 -51 13 -90 3 -38 7 -81 10
-95 6 -35 15 -109 20 -175 3 -31 10 -65 15 -75 5 -10 12 -64 15 -121 3 -57 9
-124 15 -149 16 -76 33 -164 37 -185 18 -104 196 -621 249 -723 7 -14 10 -30
7 -35 -3 -6 1 -15 9 -21 9 -7 23 -27 32 -46 18 -41 60 -117 110 -199 20 -32
36 -66 36 -75 0 -9 6 -16 13 -16 6 0 29 -30 50 -66 49 -82 168 -240 247 -324
33 -36 65 -80 72 -97 10 -29 23 -38 49 -35 3 1 4 -9 2 -22 -4 -16 5 -32 31
-56 19 -18 41 -47 47 -64 7 -17 32 -49 55 -71 41 -38 78 -113 131 -260 7 -22
24 -49 37 -60 13 -11 47 -51 77 -90 29 -38 65 -79 79 -90 53 -41 107 -101 335
-375 76 -91 182 -208 235 -260 54 -52 101 -106 105 -120 13 -41 74 -111 157
-179 44 -35 96 -85 116 -110 57 -72 162 -192 212 -241 70 -71 111 -97 196
-126 85 -28 124 -56 124 -88 0 -11 19 -38 43 -60 23 -23 56 -59 72 -81 65 -88
101 -105 375 -168 36 -8 72 -17 80 -19 8 -1 26 -13 40 -26 72 -67 152 -88 362
-96 53 -3 141 -8 195 -12 54 -5 250 -9 435 -9 186 0 338 -3 338 -7 0 -5 54 -8
120 -8 111 0 123 2 158 25 34 22 175 76 190 73 23 -5 161 48 330 128 52 24
125 51 162 58 84 18 104 28 257 132 68 46 130 84 137 84 8 0 35 18 60 39 25
22 83 57 128 79 104 50 130 73 162 144 13 32 41 78 60 104 20 26 41 64 48 86
7 23 30 56 61 86 28 26 62 59 76 73 46 46 127 163 160 231 20 43 54 89 96 131
97 99 233 288 328 457 20 36 59 88 86 117 53 56 83 112 132 247 17 47 42 103
56 123 14 21 37 61 51 91 24 52 70 108 177 217 135 138 145 154 204 302 32 80
55 110 146 193 44 40 103 128 141 209 51 109 103 212 125 247 16 26 19 38 10
43 -14 9 -1 50 22 69 8 7 24 35 36 62 16 37 19 55 11 74 -10 28 -10 28 22 30
18 1 23 11 34 66 8 36 30 117 49 181 19 63 35 126 35 140 0 13 11 48 25 77 14
30 25 64 25 75 0 12 9 51 21 87 25 81 109 441 115 495 9 77 47 250 60 272 10
16 11 29 4 49 -8 19 -7 31 2 42 10 11 10 16 1 19 -8 3 -6 18 8 51 53 125 74
153 161 227 47 41 101 80 120 88 78 34 326 344 444 557 105 189 230 610 259
869 13 121 75 368 155 616 28 88 67 214 87 280 19 66 39 132 43 147 7 21 4 34
-12 54 -17 21 -21 42 -22 107 -1 52 -8 95 -18 117 -24 51 -68 158 -87 212 -18
53 -44 87 -84 113 -19 12 -43 49 -72 112 -33 71 -48 93 -63 93 -20 0 -40 17
-40 34 -1 5 -23 19 -50 30 -27 12 -57 27 -66 35 -14 12 -19 12 -25 2 -6 -9
-10 -6 -14 9 -5 19 -11 22 -42 18 -36 -4 -37 -3 -62 51 -27 60 -32 125 -14
174 15 40 14 79 -5 105 -8 12 -11 22 -6 22 14 0 32 128 31 231 -1 56 4 106 11
119 9 17 7 34 -15 90 -15 38 -27 91 -28 117 -2 41 1 49 20 58 20 9 22 15 18
68 -3 37 1 74 11 103 13 40 13 46 -1 60 -18 18 -18 16 -4 51 6 15 15 54 19 85
5 32 15 71 23 88 9 17 11 32 6 36 -5 3 -3 14 4 25 10 13 13 39 10 80 -4 47 -1
65 12 79 11 12 15 30 12 52 -2 18 0 45 6 58 5 14 10 66 11 115 1 68 5 98 18
117 14 21 15 33 7 55 -7 22 -6 40 6 73 11 32 14 64 10 115 l-6 70 24 -29 c14
-15 27 -24 30 -19 6 9 1 80 -8 136 -3 16 1 37 10 51 20 30 30 161 16 199 -8
21 -8 34 0 50 10 17 9 23 -4 31 -13 9 -13 12 0 33 14 21 14 23 -2 23 -13 0
-15 5 -8 23 18 49 1 222 -27 278 l-18 36 24 9 c23 9 24 10 9 38 -9 16 -18 46
-21 65 -10 65 -24 110 -42 127 -10 11 -17 34 -18 58 0 23 -13 67 -27 99 -15
32 -27 68 -27 82 0 13 -7 57 -15 97 -21 95 -17 147 12 176 30 30 29 43 -10 67
-41 26 -77 81 -77 117 0 16 -17 60 -39 96 -50 86 -72 153 -66 196 5 31 3 35
-32 49 -21 9 -30 16 -20 16 31 1 20 41 -15 56 -32 13 -33 15 -33 74 -1 48 -5
65 -23 84 -12 13 -22 27 -22 33 0 5 -11 22 -25 38 -28 33 -40 67 -33 94 4 13
0 18 -15 18 -16 -1 -23 8 -30 37 -7 30 -16 41 -38 49 -36 13 -46 46 -25 87 9
17 12 31 7 31 -5 0 -22 5 -38 12 -15 7 -34 12 -40 13 -16 0 -17 4 -3 39 8 23
8 32 -5 46 -8 9 -15 23 -15 31 0 19 58 89 74 89 20 0 56 44 56 68 0 12 -9 27
-20 34 -11 7 -20 21 -20 31 0 17 28 64 58 95 16 18 15 33 -3 59 -8 12 -12 28
-9 37 5 12 -9 22 -55 42 -44 19 -60 31 -56 41 14 39 17 66 6 72 -8 6 -3 32 19
95 32 91 32 113 0 96 -23 -13 -40 3 -70 65 -16 33 -21 57 -17 85 3 22 1 40 -3
42 -12 4 -13 70 -4 201 6 100 6 107 -11 101 -14 -6 -16 -3 -11 14 4 12 4 27
-1 34 -4 7 -8 50 -8 94 -1 45 -6 88 -12 95 -6 8 -13 56 -17 108 -3 51 -12 105
-19 120 -8 16 -12 48 -9 79 2 29 -1 52 -6 52 -5 0 -12 28 -15 62 -5 53 -9 64
-36 85 -34 27 -32 53 4 53 54 0 37 41 -28 67 -24 10 -35 19 -29 25 6 6 5 19
-4 36 -8 15 -14 34 -14 43 0 39 -22 78 -51 88 -31 11 -34 15 -44 75 -4 24 -13
40 -24 43 -12 3 -16 12 -14 31 3 20 -6 38 -37 72 -22 25 -40 49 -40 54 0 4
-11 21 -25 38 -14 16 -25 40 -25 53 0 13 -10 29 -25 39 -14 9 -25 24 -25 34
-1 9 -7 28 -14 42 -10 17 -11 30 -5 42 7 14 6 18 -5 18 -9 0 -20 9 -26 20 -6
11 -15 18 -19 16 -4 -3 -17 7 -28 23 -18 23 -27 27 -57 23 l-35 -4 6 -47 c7
-53 20 -84 33 -76 5 3 13 -14 17 -37 5 -24 5 -45 1 -46 -5 -2 -1 -16 8 -30 10
-15 23 -54 31 -87 7 -33 16 -69 19 -80 3 -11 7 -61 8 -112 5 -106 -5 -130 -47
-119 -42 10 -99 65 -91 88 8 26 -8 42 -55 58 -26 8 -38 17 -34 26 6 16 -13 19
-22 4 -12 -20 -26 -9 -24 19 3 22 -7 40 -48 85 -28 31 -54 70 -58 86 -4 18
-18 38 -33 47 -41 26 -104 98 -133 151 -14 26 -39 71 -55 101 -29 53 -128 162
-191 211 -18 13 -32 31 -30 39 2 15 -101 93 -114 85 -4 -2 -5 4 -3 13 3 13
-16 32 -62 66 -48 36 -65 54 -61 67 5 21 -65 65 -88 56 -13 -5 -20 10 -16 36
0 4 -8 10 -19 13 -11 4 -20 12 -20 19 0 6 -20 17 -45 24 -31 8 -48 19 -54 34
-7 19 -14 22 -50 19 -32 -2 -41 1 -41 14 0 12 -7 15 -30 11 -21 -3 -33 1 -39
12 -5 10 -40 41 -78 71 -37 29 -80 71 -95 92 -23 33 -34 39 -63 39 -27 0 -35
4 -35 18 0 10 -6 19 -12 19 -7 1 -32 4 -55 8 -36 6 -43 4 -53 -15 l-12 -23
-24 27 c-26 27 -73 36 -75 14 -1 -7 -2 -22 -3 -33 -2 -33 -68 -31 -182 6 -55
17 -103 35 -109 39 -5 5 -26 8 -46 7 -26 -1 -47 8 -83 35 -42 32 -50 35 -76
27 -16 -6 -34 -17 -41 -25 -6 -7 -16 -11 -22 -7 -6 3 -68 20 -138 37 -108 27
-128 29 -136 17 -14 -22 -176 -35 -250 -19 -33 7 -43 14 -43 28 0 14 5 18 18
14 42 -13 -42 43 -97 65 -33 13 -78 39 -98 58 -21 19 -70 54 -109 79 -65 40
-76 44 -113 38 -35 -6 -46 -3 -65 15 -21 20 -38 23 -125 27 -75 3 -101 1 -102
-9z m1232 -468 c63 -33 63 -34 31 -37 -18 -2 -30 -7 -27 -12 3 -5 1 -11 -5
-15 -5 -3 -10 -10 -10 -15 0 -13 103 -85 107 -75 11 32 21 39 38 25 12 -10 15
-23 10 -47 -4 -23 -1 -43 12 -63 18 -31 39 -36 78 -21 25 11 69 -14 84 -46 6
-12 7 -23 2 -23 -5 0 -33 -20 -62 -45 -60 -51 -84 -56 -101 -20 -6 14 -16 25
-23 25 -6 0 -19 18 -28 39 -19 42 -42 58 -62 41 -10 -8 -15 -6 -20 10 -4 12
-20 29 -36 39 -23 14 -27 20 -15 24 9 4 16 16 16 27 0 17 -4 20 -21 15 -16 -5
-22 -1 -32 24 -10 27 -16 31 -48 31 -23 0 -42 7 -54 20 -13 14 -22 17 -36 10
-18 -10 -58 -2 -41 9 5 3 26 29 47 56 20 28 45 53 54 57 29 13 77 1 142 -33z
m2500 -3466 c13 -16 12 -17 -3 -4 -17 13 -22 21 -14 21 2 0 10 -8 17 -17z
m-7591 -257 c0 -2 -8 -10 -17 -17 -16 -13 -17 -12 -4 4 13 16 21 21 21 13z
m8875 -3776 c10 -16 -3 -29 -25 -23 -16 4 -18 8 -9 19 14 17 25 18 34 4z
m-3662 -157 c-7 -2 -21 -2 -30 0 -10 3 -4 5 12 5 17 0 24 -2 18 -5z m-5253
-759 c0 -8 -19 -13 -24 -6 -3 5 1 9 9 9 8 0 15 -2 15 -3z m3152 -9497 c-55 -6
-100 -6 -135 0 -46 9 -35 10 83 10 l135 0 -83 -10z"/>
<path d="M11491 17927 c-13 -6 -25 -20 -27 -29 -2 -14 5 -13 37 9 21 14 39 27
39 29 0 8 -26 3 -49 -9z"/>
<path d="M9600 18689 c0 -5 5 -7 10 -4 6 3 10 8 10 11 0 2 -4 4 -10 4 -5 0
-10 -5 -10 -11z"/>
<path d="M9610 18654 c0 -8 5 -12 10 -9 6 3 10 10 10 16 0 5 -4 9 -10 9 -5 0
-10 -7 -10 -16z"/>
<path d="M9636 18523 c-11 -11 5 -23 30 -23 21 0 36 19 17 21 -5 0 -16 2 -25
4 -9 2 -19 1 -22 -2z"/>
<path d="M9260 18241 c0 -12 29 -35 36 -28 11 10 -5 37 -21 37 -8 0 -15 -4
-15 -9z"/>
<path d="M9570 18161 c0 -6 5 -13 10 -16 6 -3 10 1 10 9 0 9 -4 16 -10 16 -5
0 -10 -4 -10 -9z"/>
<path d="M7680 17870 c0 -12 40 -34 47 -26 9 8 -17 36 -33 36 -8 0 -14 -4 -14
-10z"/>
<path d="M7190 17620 c0 -5 5 -10 10 -10 6 0 10 5 10 10 0 6 -4 10 -10 10 -5
0 -10 -4 -10 -10z"/>
<path d="M7610 17604 c0 -8 5 -12 10 -9 6 4 8 11 5 16 -9 14 -15 11 -15 -7z"/>
<path d="M6970 17570 c0 -5 7 -10 16 -10 8 0 12 5 9 10 -3 6 -10 10 -16 10 -5
0 -9 -4 -9 -10z"/>
<path d="M6790 17480 c0 -4 -9 -6 -20 -3 -28 7 -26 -23 3 -39 12 -7 25 -11 29
-10 4 1 12 -7 18 -18 15 -29 40 -25 40 5 0 22 3 24 19 15 26 -13 31 -13 31 4
0 15 -21 26 -48 26 -9 0 -29 7 -44 14 -16 8 -28 11 -28 6z"/>
<path d="M7275 17380 c3 -5 10 -10 16 -10 5 0 9 5 9 10 0 6 -7 10 -16 10 -8 0
-12 -4 -9 -10z"/>
<path d="M6885 17254 c24 -17 48 -18 43 -1 -3 6 -17 12 -33 13 -26 1 -27 0
-10 -12z"/>
<path d="M6420 17153 c0 -8 5 -13 12 -11 18 6 21 25 3 25 -8 0 -15 -7 -15 -14z"/>
<path d="M6778 17118 c9 -9 15 -9 24 0 9 9 7 12 -12 12 -19 0 -21 -3 -12 -12z"/>
<path d="M13581 17037 c-9 -12 -8 -16 3 -20 19 -7 27 4 17 21 -6 10 -10 10
-20 -1z"/>
<path d="M6127 16934 c-14 -15 17 -34 54 -34 42 0 57 25 17 25 -13 1 -32 4
-44 8 -11 4 -23 4 -27 1z"/>
<path d="M14330 16690 c0 -5 4 -10 9 -10 6 0 13 5 16 10 3 6 -1 10 -9 10 -9 0
-16 -4 -16 -10z"/>
<path d="M5965 16660 c3 -5 10 -10 16 -10 5 0 9 5 9 10 0 6 -7 10 -16 10 -8 0
-12 -4 -9 -10z"/>
<path d="M14393 16313 c-8 -35 -7 -64 5 -72 21 -14 29 -45 21 -75 -14 -47 -11
-67 10 -73 16 -4 17 -10 10 -41 -8 -37 4 -67 22 -56 17 10 21 -25 7 -53 -20
-41 -12 -65 20 -61 25 3 27 0 24 -29 -2 -19 1 -33 7 -33 15 0 30 41 27 73 -2
14 0 31 5 38 4 7 3 21 -2 30 -5 10 -12 46 -15 81 -7 67 -24 112 -48 121 -8 3
-21 31 -30 61 -9 30 -23 59 -32 64 -15 8 -14 10 1 16 14 5 15 9 5 21 -18 22
-29 18 -37 -12z"/>
<path d="M5686 16284 c-4 -9 -4 -19 -2 -21 8 -8 26 8 26 23 0 19 -16 18 -24
-2z"/>
<path d="M14550 16140 c0 -5 7 -10 15 -10 8 0 15 5 15 10 0 6 -7 10 -15 10 -8
0 -15 -4 -15 -10z"/>
<path d="M5151 15814 c-19 -8 -31 -17 -28 -20 8 -9 67 16 67 27 0 11 2 11 -39
-7z"/>
<path d="M5265 15631 c-20 -4 -26 -9 -17 -14 7 -5 27 -5 45 -1 17 4 35 7 40 6
4 -1 7 3 7 8 0 11 -28 11 -75 1z"/>
<path d="M5480 15620 c0 -5 6 -10 14 -10 8 0 18 5 21 10 3 6 -3 10 -14 10 -12
0 -21 -4 -21 -10z"/>
<path d="M5096 15493 c-11 -11 -6 -23 9 -23 8 0 15 4 15 9 0 13 -16 22 -24 14z"/>
<path d="M14571 15421 c-7 -5 -9 -11 -4 -14 5 -3 15 -2 22 2 7 5 9 11 4 14 -5
3 -15 2 -22 -2z"/>
<path d="M14566 15384 c-17 -16 -22 -79 -8 -88 5 -3 7 -20 5 -38 l-4 -33 25
29 c13 16 27 45 31 64 6 32 7 33 20 16 14 -18 14 -17 15 8 0 14 -3 33 -6 42
-8 21 -58 21 -78 0z"/>
<path d="M3590 15214 c0 -8 5 -12 10 -9 6 4 8 11 5 16 -9 14 -15 11 -15 -7z"/>
<path d="M14645 15150 c-8 -13 5 -13 25 0 13 8 13 10 -2 10 -9 0 -20 -4 -23
-10z"/>
<path d="M14645 15100 c-3 -5 1 -10 9 -10 9 0 16 5 16 10 0 6 -4 10 -9 10 -6
0 -13 -4 -16 -10z"/>
<path d="M4740 15090 c0 -5 7 -10 16 -10 8 0 12 5 9 10 -3 6 -10 10 -16 10 -5
0 -9 -4 -9 -10z"/>
<path d="M4698 15064 c-38 -20 -36 -38 2 -19 17 9 30 20 30 25 0 12 1 12 -32
-6z"/>
<path d="M4767 15063 c-4 -3 -7 -11 -7 -17 0 -6 5 -5 12 2 6 6 9 14 7 17 -3 3
-9 2 -12 -2z"/>
<path d="M14630 15037 c0 -23 33 -19 38 5 2 12 -3 16 -17 15 -13 -1 -21 -8
-21 -20z"/>
<path d="M14705 14940 c-9 -14 13 -50 30 -50 18 0 20 31 3 48 -15 15 -25 15
-33 2z"/>
<path d="M5205 14930 c-4 -6 -3 -16 3 -22 6 -6 12 -6 17 2 4 6 3 16 -3 22 -6
6 -12 6 -17 -2z"/>
<path d="M14776 14839 c-24 -35 -25 -39 -7 -30 20 11 51 49 51 63 0 19 -19 5
-44 -33z"/>
<path d="M5270 14860 c0 -5 5 -10 10 -10 6 0 10 5 10 10 0 6 -4 10 -10 10 -5
0 -10 -4 -10 -10z"/>
<path d="M14771 14746 c-14 -14 -30 -26 -38 -26 -18 0 -16 -7 7 -37 25 -32 25
-43 1 -36 -26 7 -54 -23 -41 -47 8 -14 5 -19 -11 -23 -23 -6 -17 -27 7 -27 17
0 17 -5 4 -31 -8 -15 -7 -19 5 -19 8 0 15 4 15 9 0 5 15 15 34 21 l34 11 -16
29 c-16 28 -16 30 3 44 18 13 18 16 5 42 -8 16 -16 32 -18 37 -2 4 3 7 12 7 9
0 18 11 22 25 10 40 0 48 -25 21z"/>
<path d="M4634 14406 c-10 -8 -16 -17 -13 -20 3 -3 14 1 25 8 10 8 16 17 13
20 -3 3 -14 -1 -25 -8z"/>
<path d="M14597 14393 c-3 -4 2 -24 10 -45 15 -37 46 -54 77 -42 11 4 16 1 16
-10 0 -24 15 -19 28 9 7 14 12 27 12 29 0 1 -26 0 -57 -2 l-58 -4 29 31 30 31
-25 -1 c-13 -1 -31 1 -40 5 -10 4 -19 4 -22 -1z"/>
<path d="M14520 14340 c0 -5 5 -10 10 -10 6 0 10 5 10 10 0 6 -4 10 -10 10 -5
0 -10 -4 -10 -10z"/>
<path d="M14650 14153 c0 -10 44 -73 51 -73 3 0 6 6 6 13 0 6 2 18 4 25 2 7
-11 19 -28 27 -18 8 -33 11 -33 8z"/>
<path d="M4965 14110 c-3 -5 -1 -10 4 -10 6 0 11 5 11 10 0 6 -2 10 -4 10 -3
0 -8 -4 -11 -10z"/>
<path d="M14710 14060 c0 -5 7 -10 15 -10 8 0 15 5 15 10 0 6 -7 10 -15 10 -8
0 -15 -4 -15 -10z"/>
<path d="M14769 14002 c0 -15 -2 -35 -4 -44 -2 -12 2 -15 13 -11 11 5 14 2 9
-10 -7 -19 36 -127 51 -127 5 0 10 25 11 55 1 43 -2 57 -15 62 -15 5 -15 7 0
15 20 11 21 28 1 28 -9 0 -20 11 -24 24 -14 36 -41 42 -42 8z"/>
<path d="M5133 13886 c3 -8 -6 -27 -20 -43 -21 -22 -27 -38 -26 -75 1 -43 -3
-50 -43 -88 -43 -41 -54 -63 -34 -75 14 -8 50 4 50 17 0 5 14 29 31 52 23 33
33 61 40 117 6 41 15 79 20 85 9 11 2 24 -14 24 -5 0 -7 -6 -4 -14z"/>
<path d="M14883 13739 c-6 -6 -9 -18 -6 -25 7 -18 43 0 43 21 0 18 -21 20 -37
4z"/>
<path d="M14927 13584 c-11 -14 -17 -26 -15 -27 1 -1 17 -10 34 -19 l32 -18
-8 36 c-12 50 -22 57 -43 28z"/>
<path d="M4823 13423 c1 -34 6 -50 15 -49 38 6 42 59 5 84 -23 14 -23 14 -20
-35z"/>
<path d="M15005 13420 c2 -17 9 -38 16 -46 11 -14 13 -13 21 0 10 17 -2 45
-26 65 -13 11 -15 9 -11 -19z"/>
<path d="M4780 13313 c0 -6 -18 -31 -40 -54 -28 -30 -37 -46 -29 -55 6 -8 5
-13 -6 -18 -22 -8 -18 -39 8 -63 29 -27 63 -44 71 -36 14 14 5 23 -23 23 -28
0 -29 2 -26 43 1 23 12 58 24 77 24 40 36 78 27 87 -3 4 -6 1 -6 -4z"/>
<path d="M15060 13290 c0 -5 5 -10 10 -10 6 0 10 5 10 10 0 6 -4 10 -10 10 -5
0 -10 -4 -10 -10z"/>
<path d="M15100 13234 c0 -15 23 -44 34 -44 16 0 27 23 18 36 -7 10 -52 17
-52 8z"/>
<path d="M15147 13151 c18 -19 30 -25 35 -17 4 6 2 13 -5 15 -7 2 -16 10 -20
17 -4 8 -15 14 -23 14 -11 0 -7 -9 13 -29z"/>
<path d="M4817 13123 c-4 -3 -7 -11 -7 -17 0 -6 5 -5 12 2 6 6 9 14 7 17 -3 3
-9 2 -12 -2z"/>
<path d="M15150 13084 c0 -8 5 -12 10 -9 6 3 10 10 10 16 0 5 -4 9 -10 9 -5 0
-10 -7 -10 -16z"/>
<path d="M4716 13018 c-14 -18 -24 -34 -22 -35 8 -8 36 11 50 32 24 37 1 39
-28 3z"/>
<path d="M15145 13031 c3 -12 0 -21 -10 -25 -13 -4 -14 -10 -5 -26 9 -16 58
-50 73 -50 6 0 -20 76 -34 102 -13 24 -32 23 -24 -1z"/>
<path d="M4672 12957 c-16 -19 -24 -75 -12 -82 5 -3 10 -21 10 -39 0 -25 5
-35 20 -39 30 -8 36 34 14 91 -10 26 -17 55 -16 65 1 20 -2 21 -16 4z"/>
<path d="M15128 12859 c-4 -39 -1 -48 25 -76 25 -27 28 -35 18 -47 -10 -12 -8
-23 10 -58 13 -24 25 -45 26 -47 2 -3 8 0 14 6 8 8 8 21 -1 45 -11 29 -10 39
4 65 16 33 9 48 -17 37 -16 -6 -47 40 -47 69 0 7 -6 22 -14 32 -12 17 -14 15
-18 -26z"/>
<path d="M4640 12744 c0 -14 3 -14 15 -4 8 7 15 14 15 16 0 2 -7 4 -15 4 -8 0
-15 -7 -15 -16z"/>
<path d="M4560 12674 c0 -3 9 -19 21 -35 13 -19 18 -36 14 -50 -8 -24 9 -41
32 -32 14 5 19 24 6 22 -21 -3 -23 4 -7 31 17 28 17 30 -1 50 -16 18 -65 29
-65 14z"/>
<path d="M15220 12569 c0 -4 10 -20 23 -34 l22 -26 0 32 c0 26 -4 33 -22 34
-13 1 -23 -2 -23 -6z"/>
<path d="M4577 12533 c-12 -12 -7 -22 8 -17 8 4 15 10 15 15 0 11 -14 12 -23
2z"/>
<path d="M4540 12465 c0 -8 7 -15 15 -15 8 0 15 4 15 9 0 5 -7 11 -15 15 -9 3
-15 0 -15 -9z"/>
<path d="M4595 12461 c3 -6 -9 -26 -26 -45 -22 -26 -27 -36 -16 -36 9 0 18 -9
21 -20 3 -11 8 -28 11 -38 4 -13 -1 -18 -16 -19 -31 -3 -50 -23 -47 -51 4 -31
28 -42 28 -13 0 11 6 24 14 28 7 4 23 24 35 43 11 19 21 31 21 26 0 -5 9 -1
20 9 25 23 26 39 1 24 -10 -7 -25 -9 -34 -6 -13 5 -14 12 -6 39 12 43 12 68
-2 68 -5 0 -8 -4 -4 -9z"/>
<path d="M15254 12438 c-11 -51 -6 -98 13 -127 10 -14 16 -30 15 -35 -6 -19
11 -46 28 -46 16 0 17 3 7 30 -6 17 -15 30 -19 30 -4 0 -4 16 -1 35 4 22 2 35
-6 35 -7 0 -9 15 -5 43 5 32 2 46 -9 55 -13 11 -16 8 -23 -20z"/>
<path d="M4537 12163 c-9 -24 -13 -56 -10 -86 3 -30 -3 -84 -16 -140 -28 -124
-30 -149 -14 -165 7 -7 13 -25 13 -39 0 -15 5 -23 13 -21 16 6 22 75 7 93 -11
13 -3 63 27 155 16 52 16 49 5 114 -7 39 -6 53 5 64 16 16 14 53 -3 59 -6 2
-18 -13 -27 -34z"/>
<path d="M15280 12133 c0 -5 4 -15 10 -23 6 -9 5 -17 -3 -22 -8 -5 -4 -8 9 -8
21 0 34 17 34 46 0 8 -10 14 -25 14 -14 0 -25 -3 -25 -7z"/>
<path d="M15286 12041 c-4 -7 -5 -15 -2 -18 9 -9 19 4 14 18 -4 11 -6 11 -12
0z"/>
<path d="M15307 11963 c-12 -12 -7 -61 7 -76 10 -9 12 -28 9 -60 -5 -39 -3
-47 11 -47 23 0 20 -15 -6 -32 -20 -13 -21 -17 -9 -46 11 -27 11 -39 -5 -83
-11 -28 -25 -54 -31 -56 -8 -3 -13 -24 -13 -54 0 -38 4 -49 16 -49 10 0 13 6
10 18 -3 9 3 35 15 56 12 23 18 48 15 62 -4 15 -1 26 10 32 17 10 29 98 13
107 -5 4 -3 12 5 21 13 12 12 19 -1 54 -15 37 -15 41 1 59 17 19 17 21 -8 54
-14 18 -23 37 -19 40 3 4 2 7 -4 7 -5 0 -13 -3 -16 -7z"/>
<path d="M4500 11685 c-4 -37 2 -80 11 -89 17 -19 19 2 5 55 -8 30 -15 45 -16
34z"/>
<path d="M4487 11594 c-7 -8 3 -34 13 -34 9 0 8 26 -1 35 -3 3 -8 2 -12 -1z"/>
<path d="M4470 11543 c0 -5 14 -24 30 -43 16 -19 30 -38 30 -42 0 -17 -35 -88
-44 -88 -4 0 -3 -7 4 -15 6 -8 9 -18 6 -24 -7 -11 14 -20 32 -14 6 3 12 11 12
19 0 8 4 14 9 14 17 0 19 -24 5 -57 -15 -37 -4 -43 25 -14 26 26 19 62 -20
115 -16 23 -25 42 -19 44 6 2 15 13 21 24 8 15 7 24 -7 39 -9 10 -23 19 -29
19 -7 0 -18 7 -25 15 -13 16 -30 20 -30 8z"/>
<path d="M15236 11355 c-8 -31 -1 -45 21 -45 14 0 14 2 -2 20 -16 18 -16 20
-1 26 9 3 13 10 10 15 -10 16 -22 9 -28 -16z"/>
<path d="M15250 11275 c-17 -20 -5 -33 25 -27 30 5 32 17 6 31 -14 8 -22 7
-31 -4z"/>
<path d="M15221 11222 c1 -15 -3 -46 -9 -68 -7 -23 -9 -49 -6 -58 3 -9 2 -22
-4 -29 -17 -20 -20 -107 -4 -107 10 0 36 94 38 135 0 17 4 55 8 86 6 47 4 57
-9 63 -13 5 -16 0 -14 -22z"/>
<path d="M4496 11175 c-3 -9 0 -15 8 -15 7 0 19 7 26 15 10 12 9 15 -8 15 -11
0 -22 -7 -26 -15z"/>
<path d="M4480 11085 c0 -15 4 -24 10 -20 6 3 10 12 10 20 0 8 -4 17 -10 20
-6 4 -10 -5 -10 -20z"/>
<path d="M4510 11041 c0 -17 9 -45 20 -63 l21 -33 -3 60 c-2 48 -7 60 -20 63
-14 3 -18 -3 -18 -27z"/>
<path d="M4567 10913 c-4 -6 -5 -18 -2 -25 3 -8 1 -27 -4 -41 -12 -32 3 -37
19 -7 12 22 -1 93 -13 73z"/>
<path d="M15200 10897 c0 -8 -7 -17 -15 -21 -8 -3 -15 -13 -15 -22 0 -14 3
-14 16 -4 23 20 36 48 24 55 -5 3 -10 0 -10 -8z"/>
<path d="M15165 10798 c8 -35 28 -56 33 -34 4 19 -16 66 -29 66 -7 0 -8 -11
-4 -32z"/>
<path d="M4546 10792 c-3 -5 1 -18 9 -28 9 -13 12 -32 8 -56 -3 -21 -1 -38 4
-38 10 0 53 55 52 67 -1 14 -67 64 -73 55z"/>
<path d="M15130 10750 c0 -5 5 -10 10 -10 6 0 10 5 10 10 0 6 -4 10 -10 10 -5
0 -10 -4 -10 -10z"/>
<path d="M15149 10703 c-1 -4 -1 -11 0 -15 0 -5 -4 -8 -9 -8 -6 0 -8 -11 -4
-25 5 -19 2 -25 -10 -25 -16 0 -20 -13 -16 -65 4 -68 31 -36 37 47 3 34 10 68
15 75 6 7 5 14 -2 18 -5 3 -11 3 -11 -2z"/>
<path d="M15950 10674 c0 -8 5 -12 10 -9 6 3 10 10 10 16 0 5 -4 9 -10 9 -5 0
-10 -7 -10 -16z"/>
<path d="M4567 10626 c-6 -15 5 -64 23 -103 33 -75 36 -102 14 -145 -14 -27
-12 -48 4 -48 11 0 45 91 45 121 0 15 -6 36 -14 45 -7 9 -14 22 -15 28 0 6 -2
16 -2 23 -1 7 -9 10 -17 7 -12 -5 -15 3 -15 40 0 45 -12 61 -23 32z"/>
<path d="M15966 10611 c-4 -7 -5 -15 -2 -18 9 -9 19 4 14 18 -4 11 -6 11 -12
0z"/>
<path d="M15095 10499 c-4 -5 -4 -43 0 -82 9 -90 8 -119 -7 -143 -8 -11 36
-37 45 -27 3 3 2 15 -3 28 -5 12 -9 49 -10 81 -1 33 -2 80 -3 107 -1 45 -9 58
-22 36z"/>
<path d="M15977 10485 c-4 -8 -2 -17 3 -20 6 -4 10 3 10 14 0 25 -6 27 -13 6z"/>
<path d="M4587 10290 c-21 -30 -8 -45 30 -35 24 6 26 8 12 18 -9 7 -18 18 -21
26 -3 11 -8 9 -21 -9z"/>
<path d="M4660 10215 c0 -8 5 -15 10 -15 6 0 10 7 10 15 0 8 -4 15 -10 15 -5
0 -10 -7 -10 -15z"/>
<path d="M4640 10165 c0 -28 12 -38 34 -29 24 9 19 29 -9 42 -23 11 -25 10
-25 -13z"/>
<path d="M15080 10180 c0 -5 5 -10 10 -10 6 0 10 5 10 10 0 6 -4 10 -10 10 -5
0 -10 -4 -10 -10z"/>
<path d="M15065 10147 c-4 -10 -5 -21 -1 -24 10 -10 18 4 13 24 -4 17 -4 17
-12 0z"/>
<path d="M4620 10096 c0 -9 -5 -25 -12 -36 -7 -10 -9 -23 -4 -27 10 -10 47 37
43 56 -3 20 -27 26 -27 7z"/>
<path d="M15052 10085 c-14 -31 -16 -65 -3 -65 22 0 34 41 22 72 -7 18 -8 18
-19 -7z"/>
<path d="M4599 9993 c-4 -44 2 -67 20 -84 12 -12 22 -39 26 -74 7 -49 39 -114
52 -102 2 3 -6 37 -17 76 -12 40 -20 85 -18 101 4 27 2 30 -21 28 -24 -3 -26
0 -24 29 2 17 -2 35 -7 38 -6 3 -11 -2 -11 -12z"/>
<path d="M4670 9696 c0 -16 27 -29 35 -16 3 5 -4 14 -15 20 -16 8 -20 8 -20
-4z"/>
<path d="M4705 9605 c0 -46 8 -58 19 -29 9 23 7 38 -6 57 -11 15 -13 11 -13
-28z"/>
<path d="M4694 9508 c3 -20 0 -40 -8 -50 -10 -13 -11 -32 -4 -74 5 -31 12 -64
17 -73 5 -9 8 -31 7 -49 -1 -22 3 -31 12 -27 6 2 12 0 12 -5 0 -6 5 -10 10
-10 14 0 3 103 -16 149 -8 18 -11 43 -8 55 11 47 11 62 -3 89 -18 36 -27 34
-19 -5z"/>
<path d="M4727 9189 c-3 -12 -1 -32 5 -45 10 -20 6 -28 -24 -62 l-35 -38 -34
22 c-22 14 -38 19 -46 12 -7 -6 -31 -6 -62 0 -54 10 -72 2 -51 -22 16 -21 60
-29 76 -15 12 10 20 8 42 -8 54 -39 69 -44 83 -26 10 12 10 15 2 9 -7 -4 -13
-2 -13 3 0 6 13 11 29 11 47 0 54 19 52 128 -1 53 -14 70 -24 31z"/>
<path d="M4385 9050 c-4 -6 11 -10 39 -8 25 0 43 5 40 10 -7 11 -72 10 -79 -2z"/>
<path d="M3580 8844 c0 -8 5 -12 10 -9 6 4 8 11 5 16 -9 14 -15 11 -15 -7z"/>
<path d="M15450 5806 c0 -9 5 -16 10 -16 6 0 10 4 10 9 0 6 -4 13 -10 16 -5 3
-10 -1 -10 -9z"/>
<path d="M13940 3490 c20 -13 40 -13 40 0 0 6 -12 10 -27 10 -22 0 -25 -2 -13
-10z"/>
</g>
</svg>
