<?xml version="1.0" standalone="no"?>
<!DOCTYPE svg PUBLIC "-//W3C//DTD SVG 20010904//EN"
 "http://www.w3.org/TR/2001/REC-SVG-20010904/DTD/svg10.dtd">
<svg version="1.0" xmlns="http://www.w3.org/2000/svg"
 width="880.000000pt" height="880.000000pt" viewBox="0 0 880.000000 880.000000"
 preserveAspectRatio="xMidYMid meet">
<metadata>
Created by potrace 1.11, written by Peter Selinger 2001-2013
</metadata>
<g transform="translate(0.000000,880.000000) scale(0.100000,-0.100000)"
fill="#000000" stroke="none">
<path d="M5362 8513 c-12 -10 -34 -43 -50 -73 -16 -30 -39 -72 -50 -92 -12
-21 -38 -68 -58 -105 -20 -37 -45 -81 -54 -98 -19 -33 -35 -61 -153 -275 -43
-80 -89 -163 -101 -185 -11 -22 -24 -42 -27 -45 -3 -3 -12 -20 -20 -37 -8 -18
-17 -33 -21 -33 -5 0 -8 -6 -8 -12 -1 -7 -21 -47 -45 -88 -24 -41 -52 -92 -61
-112 -9 -21 -21 -38 -27 -38 -6 0 -8 -3 -4 -6 3 -3 -4 -23 -17 -43 -12 -20
-40 -67 -61 -106 -43 -80 -44 -82 -190 -345 -59 -107 -125 -226 -146 -263 -22
-38 -39 -72 -39 -77 0 -4 -6 -13 -14 -19 -11 -10 -22 2 -55 60 -23 39 -41 73
-41 76 0 3 -9 18 -21 34 -11 16 -17 29 -13 29 4 0 0 8 -8 18 -8 9 -32 49 -53
87 -67 123 -97 178 -140 255 -23 41 -59 107 -80 145 -21 39 -41 75 -45 80 -6
9 -134 239 -207 373 -100 185 -109 199 -135 205 -35 9 -55 -13 -120 -133 -35
-63 -67 -122 -73 -132 -5 -9 -25 -45 -44 -80 -18 -35 -49 -88 -67 -119 -19
-31 -34 -59 -34 -61 0 -3 -22 -43 -48 -89 -27 -46 -68 -120 -91 -164 -24 -44
-70 -126 -102 -183 -33 -57 -59 -108 -59 -113 0 -5 -4 -9 -10 -9 -5 0 -10 -5
-10 -11 0 -6 -44 -90 -98 -187 -55 -98 -116 -208 -137 -247 -21 -38 -52 -95
-70 -125 -18 -30 -54 -95 -81 -145 -27 -49 -54 -99 -61 -110 -6 -11 -19 -33
-27 -50 -8 -16 -30 -57 -49 -90 -19 -33 -57 -100 -84 -150 -76 -137 -106 -192
-241 -435 -69 -124 -139 -250 -155 -280 -16 -30 -38 -68 -47 -85 -10 -16 -30
-52 -45 -80 -15 -27 -61 -111 -103 -185 -41 -74 -86 -157 -101 -185 -14 -27
-29 -51 -33 -53 -5 -2 -8 -8 -8 -13 0 -5 -21 -47 -47 -92 -25 -45 -60 -107
-76 -137 -17 -30 -47 -84 -67 -120 -20 -36 -53 -94 -72 -130 -44 -81 -79 -144
-133 -240 -23 -41 -59 -106 -80 -145 -21 -38 -125 -225 -230 -415 -106 -190
-212 -381 -235 -425 -24 -44 -51 -92 -62 -107 -10 -14 -18 -29 -18 -32 0 -3
-29 -58 -65 -121 -36 -63 -65 -116 -65 -119 0 -2 -20 -39 -45 -80 -25 -42 -45
-78 -45 -80 0 -3 -24 -46 -54 -98 -136 -236 -146 -267 -93 -287 12 -5 536 -8
1165 -8 628 0 1144 -2 1146 -4 2 -2 -14 -35 -36 -74 -22 -38 -58 -104 -81
-145 -22 -41 -68 -124 -102 -185 -34 -60 -65 -117 -68 -125 -4 -8 -19 -35 -33
-60 -14 -25 -37 -65 -50 -90 -14 -25 -29 -52 -34 -60 -24 -39 -178 -323 -194
-357 -6 -13 -14 -23 -18 -23 -5 0 -8 -4 -8 -10 0 -5 -25 -54 -55 -109 -58
-105 -65 -130 -39 -155 14 -15 331 -16 3377 -14 l3361 3 14 25 c13 23 12 30
-5 65 -19 38 -198 362 -251 455 -15 25 -27 47 -27 50 0 3 -12 25 -27 50 -14
25 -65 117 -114 205 -48 88 -96 176 -107 195 -19 34 -50 90 -109 198 -16 30
-35 64 -42 75 -7 12 -31 56 -53 97 -22 41 -50 92 -61 112 -12 21 -38 68 -58
105 -21 37 -50 90 -66 116 -15 26 -28 49 -28 51 0 2 -38 71 -84 155 -47 83
-84 152 -83 152 1 1 340 2 754 3 739 1 752 1 767 21 15 19 13 72 -3 85 -3 3
-17 26 -31 53 -41 77 -64 118 -103 185 -20 35 -37 65 -37 67 0 1 -47 87 -105
190 -58 103 -105 189 -105 190 0 2 -21 41 -48 87 -26 46 -56 101 -67 123 -11
22 -22 42 -25 45 -3 3 -12 19 -21 35 -10 17 -73 131 -141 255 -68 124 -127
232 -131 240 -4 8 -18 33 -32 55 -14 22 -28 47 -32 55 -6 14 -124 229 -143
260 -5 8 -18 31 -28 51 -11 19 -74 133 -141 253 -67 119 -121 221 -121 226 0
4 -3 10 -7 12 -5 2 -17 21 -29 43 -19 38 -33 63 -123 225 -20 36 -43 79 -51
95 -8 17 -17 32 -20 35 -3 3 -10 14 -16 25 -6 11 -23 43 -39 70 -15 28 -43 79
-62 114 -18 35 -37 69 -42 75 -4 6 -23 40 -42 76 -18 36 -40 76 -49 90 -10 14
-34 57 -55 95 -34 64 -264 480 -321 583 -44 77 -71 126 -104 187 -18 33 -52
94 -75 135 -24 41 -57 102 -75 135 -19 33 -44 78 -56 100 -12 22 -39 72 -60
110 -20 39 -40 75 -44 80 -4 6 -24 41 -44 78 -20 37 -45 82 -55 100 -10 18
-33 59 -51 92 -18 33 -63 114 -100 180 -37 66 -82 147 -100 180 -18 33 -62
111 -97 174 -34 62 -63 115 -63 117 0 2 -13 25 -28 51 -16 26 -45 77 -64 113
-20 36 -55 98 -77 139 -23 41 -41 78 -41 82 0 5 -4 9 -10 9 -5 0 -10 7 -10 15
0 20 -44 65 -63 65 -8 0 -24 -8 -35 -17z m68 -205 c0 -3 41 -80 91 -170 51
-90 104 -186 119 -213 15 -28 95 -173 179 -322 83 -150 151 -277 151 -282 0
-5 3 -11 8 -13 4 -1 16 -21 28 -43 11 -22 52 -96 91 -165 38 -69 86 -156 107
-193 20 -37 46 -84 58 -105 11 -20 43 -77 71 -127 27 -49 61 -110 74 -135 14
-25 41 -74 61 -110 19 -36 63 -114 97 -175 34 -60 75 -135 92 -165 17 -30 41
-75 55 -100 14 -25 40 -72 58 -105 18 -33 86 -154 150 -270 65 -115 131 -235
147 -265 65 -117 370 -668 413 -745 9 -16 32 -57 50 -90 18 -33 52 -94 75
-135 23 -41 59 -106 80 -145 21 -38 54 -99 75 -135 20 -36 55 -99 77 -140 22
-41 50 -91 61 -110 11 -19 29 -51 40 -70 116 -212 240 -435 269 -485 12 -22
26 -47 30 -55 4 -8 58 -107 121 -220 63 -113 128 -230 144 -260 17 -30 48 -85
69 -123 21 -38 39 -71 39 -74 0 -3 9 -16 20 -30 11 -14 20 -31 20 -38 0 -10
-149 -13 -725 -11 l-726 1 -214 388 c-118 213 -215 392 -215 397 0 6 -4 10
-10 10 -5 0 -10 5 -10 10 0 6 -23 52 -52 103 -29 50 -51 94 -49 96 1 2 -1 7
-6 10 -4 3 -15 20 -24 36 -9 17 -65 118 -125 225 -59 107 -121 222 -138 255
-17 33 -34 62 -38 63 -5 2 -8 7 -8 11 0 5 -39 77 -86 162 -48 85 -91 163 -96
174 -5 11 -14 29 -21 40 -7 11 -32 56 -56 100 -24 44 -52 94 -61 110 -31 55
-77 139 -115 210 -21 39 -58 105 -82 148 -44 77 -64 115 -120 217 -42 75 -130
235 -161 290 -13 25 -37 68 -52 95 -26 47 -40 72 -105 190 -15 28 -40 73 -56
101 -15 29 -50 92 -78 142 -28 49 -51 93 -51 97 0 4 -8 19 -18 33 -11 15 -34
56 -53 92 -18 36 -36 67 -39 70 -3 3 -10 14 -16 25 -6 12 -24 21 -41 23 -40 4
-44 -2 -224 -333 -17 -33 -52 -95 -76 -137 -23 -43 -43 -82 -43 -87 0 -5 -3
-11 -7 -13 -5 -2 -18 -21 -29 -43 -25 -45 -39 -54 -47 -28 -3 10 -21 45 -40
78 -19 33 -56 101 -84 150 -28 50 -59 106 -70 125 -11 19 -35 62 -53 95 -18
33 -40 73 -49 88 -15 26 -14 30 14 80 16 29 34 62 40 74 5 13 14 23 18 23 5 0
6 4 2 9 -3 5 0 15 7 23 7 7 22 31 34 53 11 22 30 56 41 75 11 19 60 107 108
195 49 88 97 176 108 195 11 19 27 49 35 65 9 17 18 32 21 35 3 3 17 29 31 57
14 29 28 53 31 53 4 0 10 11 13 25 4 14 11 25 17 25 6 0 8 4 5 9 -3 5 2 19 12
32 10 13 25 38 34 54 8 17 50 93 92 170 43 77 94 169 114 205 19 36 62 111 94
168 32 57 58 105 58 107 0 2 15 30 34 62 18 32 59 105 91 162 l58 104 18 -24
c10 -13 19 -27 19 -31z m-1981 -720 c17 -32 45 -84 62 -115 18 -32 40 -71 49
-88 10 -16 32 -57 50 -90 18 -33 42 -76 53 -95 11 -19 33 -60 50 -90 16 -30
48 -89 72 -130 23 -41 57 -102 75 -135 18 -33 52 -94 75 -135 23 -41 58 -104
78 -140 19 -36 52 -94 72 -130 20 -36 39 -73 42 -82 3 -10 9 -18 13 -18 5 0
-2 -19 -15 -42 -13 -24 -40 -74 -61 -113 -20 -38 -39 -72 -43 -75 -4 -3 -17
-25 -29 -50 -12 -25 -32 -63 -45 -85 -12 -22 -67 -121 -122 -220 -55 -99 -104
-188 -110 -197 -5 -10 -30 -55 -54 -100 -24 -46 -47 -85 -50 -88 -3 -3 -14
-21 -23 -40 -10 -19 -32 -62 -51 -95 -53 -95 -185 -331 -242 -435 -29 -52 -62
-113 -75 -135 -12 -22 -43 -78 -68 -125 -25 -47 -48 -87 -51 -90 -3 -3 -24
-40 -46 -82 -22 -43 -43 -78 -47 -78 -5 0 -8 -8 -8 -19 0 -10 -7 -24 -15 -31
-8 -7 -15 -17 -15 -22 0 -5 -17 -40 -39 -76 -21 -37 -53 -94 -71 -127 -85
-158 -205 -371 -213 -376 -5 -3 -9 -10 -8 -15 0 -8 -70 -136 -197 -364 -72
-130 -167 -300 -189 -340 -13 -25 -28 -52 -33 -60 -5 -8 -39 -69 -75 -135 -36
-66 -70 -127 -75 -135 -25 -38 -80 -151 -80 -164 0 -9 9 -23 19 -33 18 -17 46
-18 370 -18 193 0 351 -3 351 -7 0 -4 -43 -85 -95 -179 -52 -94 -95 -175 -95
-179 0 -5 -3 -10 -7 -12 -5 -1 -19 -25 -33 -53 -14 -27 -27 -52 -30 -55 -3 -3
-17 -27 -31 -55 l-26 -50 -1132 -3 c-622 -1 -1131 1 -1131 5 0 5 19 42 43 83
24 42 46 82 50 90 4 8 18 33 30 55 13 22 38 67 57 100 90 165 108 197 157 284
29 51 53 95 53 97 0 2 14 27 31 56 17 28 82 145 144 258 62 113 121 221 132
240 11 19 35 62 53 95 18 33 42 76 53 95 11 19 35 64 55 100 19 36 43 77 53
92 11 14 19 29 19 32 0 3 57 108 126 233 70 125 142 257 162 293 19 36 46 81
58 101 13 20 20 40 17 43 -4 3 -1 6 5 6 7 0 12 3 12 8 0 4 72 138 161 297 88
160 177 319 196 355 20 36 56 100 80 143 24 42 54 96 67 120 13 23 83 150 156
282 172 311 169 306 220 400 24 44 46 82 49 85 3 3 14 21 23 40 10 19 32 62
51 95 18 33 47 85 64 115 17 30 52 93 78 140 26 47 63 114 82 150 20 36 60
107 89 158 30 52 54 96 54 98 0 3 19 37 42 77 22 40 51 90 63 112 12 22 31 56
42 75 10 19 111 201 223 403 112 202 206 364 210 360 4 -4 21 -34 39 -65z
m1577 -1385 c30 -55 138 -252 161 -293 11 -19 73 -132 138 -250 65 -118 121
-219 125 -225 4 -5 29 -50 56 -100 46 -86 86 -160 117 -215 7 -14 31 -56 52
-95 21 -38 47 -82 57 -97 11 -16 16 -28 12 -28 -3 0 -1 -6 5 -13 12 -15 70
-119 99 -177 9 -19 19 -37 22 -40 3 -3 41 -70 85 -150 43 -80 87 -161 98 -180
25 -45 109 -196 259 -470 17 -30 42 -75 56 -100 14 -25 48 -88 77 -140 29 -52
101 -183 160 -290 59 -107 120 -217 135 -245 15 -27 39 -70 52 -95 56 -100 93
-167 114 -205 13 -22 35 -62 49 -90 15 -27 37 -66 48 -85 12 -19 22 -40 23
-47 1 -7 12 -24 23 -39 41 -53 47 -52 -314 -52 l-335 0 -29 51 c-16 29 -43 79
-61 112 -87 159 -182 332 -190 345 -38 63 -80 142 -80 150 0 6 -4 10 -10 10
-5 0 -10 9 -10 19 0 11 -3 21 -8 23 -6 2 -73 120 -215 378 -17 30 -72 129
-122 220 -51 91 -109 197 -130 235 -21 39 -51 92 -67 118 -15 26 -28 50 -28
53 0 3 -10 20 -22 37 -13 18 -22 33 -20 35 1 1 -4 12 -12 25 -7 12 -76 135
-151 272 -167 302 -148 268 -332 600 -83 149 -168 302 -189 340 -21 39 -45 82
-53 96 -18 32 -22 22 111 259 100 177 178 322 178 330 0 6 4 10 9 10 5 0 11 9
14 20 8 30 21 24 43 -17z m-799 -23 c11 -19 43 -76 71 -126 29 -51 52 -97 52
-103 0 -6 5 -11 10 -11 6 0 10 -5 10 -10 0 -6 10 -27 23 -48 13 -20 45 -77 71
-127 27 -49 52 -94 57 -99 16 -17 10 -32 -62 -162 -40 -71 -108 -194 -151
-274 -44 -80 -93 -167 -108 -195 -15 -27 -65 -117 -110 -200 -46 -82 -94 -170
-108 -195 -14 -25 -47 -85 -75 -135 -27 -49 -59 -108 -72 -130 -12 -22 -35
-65 -51 -95 -16 -30 -32 -56 -36 -58 -5 -2 -8 -8 -8 -12 0 -5 -46 -91 -101
-192 -56 -101 -115 -208 -132 -238 -16 -30 -42 -77 -57 -105 -45 -82 -181
-327 -208 -375 -36 -64 -65 -117 -99 -180 -16 -30 -53 -96 -81 -147 -28 -51
-70 -127 -93 -170 -23 -43 -45 -82 -49 -88 -4 -5 -26 -45 -49 -87 -23 -43 -49
-91 -58 -107 l-17 -29 -333 0 -333 0 21 29 c11 16 18 29 15 29 -3 0 16 37 43
82 26 46 64 115 85 153 22 39 70 126 109 195 38 69 80 143 92 165 69 127 99
181 236 428 83 150 164 295 179 322 56 101 178 321 197 355 11 19 62 112 113
205 51 94 115 208 142 253 26 46 48 86 48 88 0 2 30 57 66 121 36 65 80 143
96 173 17 30 51 93 77 138 25 46 57 105 71 130 14 26 28 49 32 50 5 2 8 8 8
14 0 5 17 40 39 76 21 37 55 99 76 137 58 108 94 173 126 227 16 27 29 51 29
53 0 2 13 26 28 52 16 26 50 89 77 138 53 99 68 125 71 122 1 -1 11 -18 21
-37z m443 -795 c70 -127 186 -336 218 -395 19 -36 52 -95 73 -132 22 -36 39
-71 39 -77 0 -6 3 -11 8 -11 4 0 16 -20 27 -45 11 -25 23 -45 27 -45 5 0 8 -4
8 -9 0 -5 43 -87 96 -183 53 -95 112 -202 132 -238 20 -36 48 -87 64 -113 15
-26 28 -50 28 -52 0 -2 15 -30 34 -62 18 -32 47 -83 63 -113 17 -30 64 -116
105 -190 41 -74 78 -142 81 -150 4 -8 17 -31 28 -50 12 -19 44 -75 72 -125 27
-49 61 -110 75 -135 41 -74 105 -193 116 -217 6 -13 14 -23 19 -23 4 0 7 -5 7
-11 0 -6 10 -25 22 -42 13 -18 22 -33 20 -35 -2 -2 12 -29 77 -142 14 -25 26
-47 26 -50 0 -3 17 -33 38 -68 20 -35 37 -65 37 -67 0 -3 14 -27 30 -53 17
-27 30 -54 30 -60 0 -7 -517 -10 -1675 -10 -921 0 -1675 1 -1675 2 0 1 40 74
88 162 49 87 106 191 127 229 66 122 125 229 135 245 5 8 20 35 33 60 13 25
58 106 99 180 93 166 112 201 174 315 27 50 54 98 59 107 11 18 61 111 91 168
11 19 21 37 24 40 3 3 17 28 32 57 15 29 73 135 129 235 56 101 140 253 187
338 47 85 105 191 130 235 24 44 56 103 71 130 14 28 29 52 33 53 5 2 8 8 8
13 0 5 31 64 68 132 72 128 118 211 160 289 l26 47 24 -42 c13 -23 36 -64 52
-92z m1679 -3035 c10 -14 36 -59 58 -100 22 -41 50 -93 63 -115 13 -22 36 -65
53 -95 17 -30 56 -101 88 -157 l58 -103 -2070 0 -2069 0 24 43 c197 358 301
543 307 547 4 3 786 5 1739 5 l1732 0 17 -25z m800 0 c10 -14 42 -70 71 -125
29 -55 61 -112 72 -127 10 -14 18 -29 18 -32 0 -3 29 -57 63 -119 35 -61 82
-146 104 -187 22 -41 50 -92 61 -112 12 -21 38 -68 58 -105 21 -37 50 -90 66
-116 15 -26 28 -49 28 -51 0 -2 30 -57 66 -122 37 -66 80 -144 96 -174 16 -30
37 -69 48 -87 10 -17 38 -67 61 -110 23 -43 96 -174 161 -292 66 -117 116
-216 113 -219 -7 -7 -6438 -10 -6466 -4 -14 3 -7 21 37 99 30 52 54 99 54 104
0 5 5 9 11 9 5 0 8 4 4 9 -3 5 -1 12 4 15 5 3 20 28 34 54 34 65 84 156 141
257 12 22 38 69 57 105 19 36 36 67 39 70 3 3 15 23 26 45 35 65 84 155 129
235 52 92 124 226 143 262 7 15 18 31 24 34 6 4 972 7 2147 7 1175 0 2146 3
2158 8 41 15 39 50 -8 136 -23 43 -47 87 -53 98 -6 11 -13 22 -16 25 -3 3 -18
30 -34 60 -36 68 -78 145 -167 302 -20 36 -36 68 -34 70 2 2 153 3 335 3 l332
0 17 -25z"/>
</g>
</svg>
